<mxfile host="65bd71144e">
    <diagram id="jRY9R0iH6WL8O97uRXXT" name="Page-1">
        <mxGraphModel dx="1001" dy="580" grid="1" gridSize="10" guides="1" tooltips="1" connect="1" arrows="1" fold="1" page="1" pageScale="1" pageWidth="1200" pageHeight="900" math="0" shadow="0">
            <root>
                <mxCell id="0"/>
                <mxCell id="1" parent="0"/>
                <mxCell id="test_title" value="Autonomous Test Generation Workflow" style="text;html=1;strokeColor=none;fillColor=none;align=center;verticalAlign=middle;whiteSpace=wrap;rounded=0;fontSize=16;fontStyle=1;" parent="1" vertex="1">
                    <mxGeometry x="450" y="20" width="350" height="30" as="geometry"/>
                </mxCell>
                <mxCell id="triggers_group" value="Trigger Sources" style="swimlane;whiteSpace=wrap;html=1;fillColor=#fff3e0;strokeColor=#f57c00;fontStyle=1;startSize=30;" parent="1" vertex="1">
                    <mxGeometry x="20" y="70" width="200" height="180" as="geometry"/>
                </mxCell>
                <mxCell id="ts1" value="🚀 CI/CD Pipeline Trigger&#xa;New Code Commit/Merge" style="rounded=1;whiteSpace=wrap;html=1;fillColor=#FF9800;strokeColor=#F57C00;fontColor=#ffffff;" parent="triggers_group" vertex="1">
                    <mxGeometry x="10" y="40" width="180" height="30" as="geometry"/>
                </mxCell>
                <mxCell id="ts2" value="🌐 UI Dashboard Trigger&#xa;Manual Test Generation Request" style="rounded=1;whiteSpace=wrap;html=1;fillColor=#FF9800;strokeColor=#F57C00;fontColor=#ffffff;" parent="triggers_group" vertex="1">
                    <mxGeometry x="10" y="80" width="180" height="30" as="geometry"/>
                </mxCell>
                <mxCell id="ts3" value="⏰ Scheduled Trigger&#xa;Periodic Test Review" style="rounded=1;whiteSpace=wrap;html=1;fillColor=#FF9800;strokeColor=#F57C00;fontColor=#ffffff;" parent="triggers_group" vertex="1">
                    <mxGeometry x="10" y="120" width="180" height="30" as="geometry"/>
                </mxCell>
                <mxCell id="analysis_group" value="Initial Analysis &amp; Routing [AI]" style="swimlane;whiteSpace=wrap;html=1;fillColor=#e3f2fd;strokeColor=#1976d2;fontStyle=1;startSize=30;" parent="1" vertex="1">
                    <mxGeometry x="250" y="70" width="200" height="180" as="geometry"/>
                </mxCell>
                <mxCell id="iar1" value="Request Analysis Agent&#xa;📊 Context Extraction" style="rounded=1;whiteSpace=wrap;html=1;fillColor=#4A90E2;strokeColor=#2E5C8A;fontColor=#ffffff;" parent="analysis_group" vertex="1">
                    <mxGeometry x="10" y="40" width="180" height="30" as="geometry"/>
                </mxCell>
                <mxCell id="iar2" value="Priority Assessment Agent&#xa;⚡ Urgency Calculation" style="rounded=1;whiteSpace=wrap;html=1;fillColor=#4A90E2;strokeColor=#2E5C8A;fontColor=#ffffff;" parent="analysis_group" vertex="1">
                    <mxGeometry x="10" y="80" width="180" height="30" as="geometry"/>
                </mxCell>
                <mxCell id="iar3" value="Workflow Selection Agent&#xa;🎯 Process Optimization" style="rounded=1;whiteSpace=wrap;html=1;fillColor=#4A90E2;strokeColor=#2E5C8A;fontColor=#ffffff;" parent="analysis_group" vertex="1">
                    <mxGeometry x="10" y="120" width="180" height="30" as="geometry"/>
                </mxCell>
                <mxCell id="app_analysis_group" value="Application Analysis Phase [AI]" style="swimlane;whiteSpace=wrap;html=1;fillColor=#e3f2fd;strokeColor=#1976d2;fontStyle=1;startSize=30;" parent="1" vertex="1">
                    <mxGeometry x="480" y="70" width="200" height="180" as="geometry"/>
                </mxCell>
                <mxCell id="aap1" value="Repository Scanner Agent&#xa;🔬 Codebase Analysis" style="rounded=1;whiteSpace=wrap;html=1;fillColor=#4A90E2;strokeColor=#2E5C8A;fontColor=#ffffff;" parent="app_analysis_group" vertex="1">
                    <mxGeometry x="10" y="40" width="180" height="30" as="geometry"/>
                </mxCell>
                <mxCell id="aap2" value="Dependency Mapper Agent&#xa;🔗 Component Relationship Analysis" style="rounded=1;whiteSpace=wrap;html=1;fillColor=#4A90E2;strokeColor=#2E5C8A;fontColor=#ffffff;" parent="app_analysis_group" vertex="1">
                    <mxGeometry x="10" y="80" width="180" height="30" as="geometry"/>
                </mxCell>
                <mxCell id="aap3" value="Change Impact Assessor&#xa;📈 Risk Evaluation" style="rounded=1;whiteSpace=wrap;html=1;fillColor=#4A90E2;strokeColor=#2E5C8A;fontColor=#ffffff;" parent="app_analysis_group" vertex="1">
                    <mxGeometry x="10" y="120" width="180" height="30" as="geometry"/>
                </mxCell>
                <mxCell id="kg_queries_group" value="Knowledge Graph Intelligence Queries" style="swimlane;whiteSpace=wrap;html=1;fillColor=#f3e5f5;strokeColor=#7b1fa2;fontStyle=1;startSize=30;" parent="1" vertex="1">
                    <mxGeometry x="20" y="280" width="660" height="120" as="geometry"/>
                </mxCell>
                <mxCell id="kgq1" value="🎯 Application Profile Query:&#xa;MATCH (app:Application {name: $appName})-[:CONTAINS]-&gt;(comp:Component)&#xa;OPTIONAL MATCH (comp)-[:TESTED_BY]-&gt;(test:TestCase)&#xa;RETURN comp.name, comp.type, comp.complexity_score, count(test) as existing_tests" style="rounded=1;whiteSpace=wrap;html=1;fillColor=#F5A623;strokeColor=#C7851B;fontColor=#ffffff;fontSize=9;align=left;" parent="kg_queries_group" vertex="1">
                    <mxGeometry x="10" y="40" width="310" height="70" as="geometry"/>
                </mxCell>
                <mxCell id="kgq2" value="🔄 Similar Application Patterns:&#xa;MATCH (similar:Application)-[:CONTAINS]-&gt;(comp:Component)&#xa;      -[:TESTED_BY]-&gt;(test:TestCase)&#xa;WHERE similar.technology_stack = $techStack&#xa;RETURN comp.type, test.type, test.pattern, count(*) as usage_frequency" style="rounded=1;whiteSpace=wrap;html=1;fillColor=#F5A623;strokeColor=#C7851B;fontColor=#ffffff;fontSize=9;align=left;" parent="kg_queries_group" vertex="1">
                    <mxGeometry x="340" y="40" width="310" height="70" as="geometry"/>
                </mxCell>
                <mxCell id="strategy_group" value="Test Strategy Planning [AI]" style="swimlane;whiteSpace=wrap;html=1;fillColor=#e8f5e8;strokeColor=#2e7d32;fontStyle=1;startSize=30;" parent="1" vertex="1">
                    <mxGeometry x="710" y="70" width="200" height="180" as="geometry"/>
                </mxCell>
                <mxCell id="tsp1" value="Test Type Prioritizer&#xa;🎯 Strategy Selection" style="rounded=1;whiteSpace=wrap;html=1;fillColor=#4CAF50;strokeColor=#2E7D32;fontColor=#ffffff;" parent="strategy_group" vertex="1">
                    <mxGeometry x="10" y="40" width="180" height="30" as="geometry"/>
                </mxCell>
                <mxCell id="tsp2" value="Coverage Goal Calculator&#xa;📊 Target Setting" style="rounded=1;whiteSpace=wrap;html=1;fillColor=#4CAF50;strokeColor=#2E7D32;fontColor=#ffffff;" parent="strategy_group" vertex="1">
                    <mxGeometry x="10" y="80" width="180" height="30" as="geometry"/>
                </mxCell>
                <mxCell id="tsp3" value="Template Selector&#xa;📋 Pattern Matching" style="rounded=1;whiteSpace=wrap;html=1;fillColor=#4CAF50;strokeColor=#2E7D32;fontColor=#ffffff;" parent="strategy_group" vertex="1">
                    <mxGeometry x="10" y="120" width="180" height="30" as="geometry"/>
                </mxCell>
                <mxCell id="parallel_group" value="Parallel Test Generation [AI]" style="swimlane;whiteSpace=wrap;html=1;fillColor=#fce4ec;strokeColor=#c2185b;fontStyle=1;startSize=30;" parent="1" vertex="1">
                    <mxGeometry x="210" y="430" width="700" height="200" as="geometry"/>
                </mxCell>
                <mxCell id="integration_stream" value="Integration Test Generation Stream" style="swimlane;whiteSpace=wrap;html=1;fillColor=none;strokeColor=none;fontStyle=1;startSize=25;" parent="parallel_group" vertex="1">
                    <mxGeometry x="15" y="40" width="210" height="150" as="geometry"/>
                </mxCell>
                <mxCell id="itg1" value="API Contract Analyzer&#xa;📡 Interface Specification" style="rounded=1;whiteSpace=wrap;html=1;fillColor=#4A90E2;strokeColor=#2E5C8A;fontColor=#ffffff;fontSize=10;" parent="integration_stream" vertex="1">
                    <mxGeometry x="10" y="30" width="190" height="25" as="geometry"/>
                </mxCell>
                <mxCell id="itg2" value="Data Flow Mapper&#xa;🔄 End-to-End Tracing" style="rounded=1;whiteSpace=wrap;html=1;fillColor=#4A90E2;strokeColor=#2E5C8A;fontColor=#ffffff;fontSize=10;" parent="integration_stream" vertex="1">
                    <mxGeometry x="10" y="60" width="190" height="25" as="geometry"/>
                </mxCell>
                <mxCell id="itg3" value="Service Interaction Modeler&#xa;🤝 Component Integration" style="rounded=1;whiteSpace=wrap;html=1;fillColor=#4A90E2;strokeColor=#2E5C8A;fontColor=#ffffff;fontSize=10;" parent="integration_stream" vertex="1">
                    <mxGeometry x="10" y="90" width="190" height="25" as="geometry"/>
                </mxCell>
                <mxCell id="performance_stream" value="Performance Test Generation Stream" style="swimlane;whiteSpace=wrap;html=1;fillColor=none;strokeColor=none;fontStyle=1;startSize=25;" parent="parallel_group" vertex="1">
                    <mxGeometry x="251" y="40" width="210" height="150" as="geometry"/>
                </mxCell>
                <mxCell id="ptg1" value="Load Profile Analyzer&#xa;📊 Traffic Pattern Analysis" style="rounded=1;whiteSpace=wrap;html=1;fillColor=#4A90E2;strokeColor=#2E5C8A;fontColor=#ffffff;fontSize=10;" parent="performance_stream" vertex="1">
                    <mxGeometry x="10" y="30" width="190" height="25" as="geometry"/>
                </mxCell>
                <mxCell id="ptg2" value="Bottleneck Predictor&#xa;🚧 Performance Risk Assessment" style="rounded=1;whiteSpace=wrap;html=1;fillColor=#4A90E2;strokeColor=#2E5C8A;fontColor=#ffffff;fontSize=10;" parent="performance_stream" vertex="1">
                    <mxGeometry x="10" y="60" width="190" height="25" as="geometry"/>
                </mxCell>
                <mxCell id="ptg3" value="Scalability Test Designer&#xa;📈 Capacity Testing" style="rounded=1;whiteSpace=wrap;html=1;fillColor=#4A90E2;strokeColor=#2E5C8A;fontColor=#ffffff;fontSize=10;" parent="performance_stream" vertex="1">
                    <mxGeometry x="10" y="90" width="190" height="25" as="geometry"/>
                </mxCell>
                <mxCell id="quality_group" value="Test Quality Validation [AI]" style="swimlane;whiteSpace=wrap;html=1;fillColor=none;strokeColor=none;fontStyle=1;startSize=25;" parent="parallel_group" vertex="1">
                    <mxGeometry x="490" y="40" width="210" height="150" as="geometry"/>
                </mxCell>
                <mxCell id="tqv1" value="Code Quality Checker&#xa;✅ Standards Compliance" style="rounded=1;whiteSpace=wrap;html=1;fillColor=#4A90E2;strokeColor=#2E5C8A;fontColor=#ffffff;fontSize=10;" parent="quality_group" vertex="1">
                    <mxGeometry x="10" y="30" width="190" height="25" as="geometry"/>
                </mxCell>
                <mxCell id="tqv2" value="Coverage Analyzer&#xa;📊 Completeness Assessment" style="rounded=1;whiteSpace=wrap;html=1;fillColor=#4A90E2;strokeColor=#2E5C8A;fontColor=#ffffff;fontSize=10;" parent="quality_group" vertex="1">
                    <mxGeometry x="10" y="60" width="190" height="25" as="geometry"/>
                </mxCell>
                <mxCell id="tqv3" value="Maintainability Scorer&#xa;🔧 Code Quality Assessment" style="rounded=1;whiteSpace=wrap;html=1;fillColor=#4A90E2;strokeColor=#2E5C8A;fontColor=#ffffff;fontSize=10;" parent="quality_group" vertex="1">
                    <mxGeometry x="10" y="90" width="190" height="25" as="geometry"/>
                </mxCell>
                <mxCell id="human_review_group" value="Human Review &amp; Feedback [Non-AI]" style="swimlane;whiteSpace=wrap;html=1;fillColor=#f3e5f5;strokeColor=#7b1fa2;fontStyle=1;startSize=30;" parent="1" vertex="1">
                    <mxGeometry x="20" y="660" width="400" height="120" as="geometry"/>
                </mxCell>
                <mxCell id="hrf1" value="📋 Test Review Dashboard&#xa;Generated Test Presentation" style="rounded=1;whiteSpace=wrap;html=1;fillColor=#9B9B9B;strokeColor=#6B6B6B;fontColor=#ffffff;" parent="human_review_group" vertex="1">
                    <mxGeometry x="10" y="40" width="180" height="30" as="geometry"/>
                </mxCell>
                <mxCell id="hrf2" value="✅ Approval Workflow&#xa;Multi-Stage Authorization" style="rounded=1;whiteSpace=wrap;html=1;fillColor=#9B9B9B;strokeColor=#6B6B6B;fontColor=#ffffff;" parent="human_review_group" vertex="1">
                    <mxGeometry x="210" y="40" width="180" height="30" as="geometry"/>
                </mxCell>
                <mxCell id="output_group" value="Output Generation &amp; Integration [Non-AI]" style="swimlane;whiteSpace=wrap;html=1;fillColor=#e8f5e8;strokeColor=#2e7d32;fontStyle=1;startSize=30;" parent="1" vertex="1">
                    <mxGeometry x="450" y="660" width="460" height="120" as="geometry"/>
                </mxCell>
                <mxCell id="ogi1" value="🧪 Test Script Generator&#xa;Framework-Specific Code Generation" style="rounded=1;whiteSpace=wrap;html=1;fillColor=#4CAF50;strokeColor=#2E7D32;fontColor=#ffffff;fontSize=10;" parent="output_group" vertex="1">
                    <mxGeometry x="10" y="40" width="140" height="30" as="geometry"/>
                </mxCell>
                <mxCell id="ogi2" value="📁 Test Organization&#xa;Suite Structure &amp; Naming" style="rounded=1;whiteSpace=wrap;html=1;fillColor=#4CAF50;strokeColor=#2E7D32;fontColor=#ffffff;fontSize=10;" parent="output_group" vertex="1">
                    <mxGeometry x="160" y="40" width="140" height="30" as="geometry"/>
                </mxCell>
                <mxCell id="ogi3" value="🔄 Repository Integration&#xa;Version Control Commit" style="rounded=1;whiteSpace=wrap;html=1;fillColor=#4CAF50;strokeColor=#2E7D32;fontColor=#ffffff;fontSize=10;" parent="output_group" vertex="1">
                    <mxGeometry x="310" y="40" width="140" height="30" as="geometry"/>
                </mxCell>
                <mxCell id="flow_1" value="" style="endArrow=classic;html=1;rounded=0;exitX=1;exitY=0.5;exitDx=0;exitDy=0;entryX=0;entryY=0.5;entryDx=0;entryDy=0;strokeColor=#FF5722;strokeWidth=2;" parent="1" source="ts1" target="iar1" edge="1">
                    <mxGeometry width="50" height="50" relative="1" as="geometry">
                        <mxPoint x="400" y="300" as="sourcePoint"/>
                        <mxPoint x="450" y="250" as="targetPoint"/>
                    </mxGeometry>
                </mxCell>
                <mxCell id="flow_2" value="" style="endArrow=classic;html=1;rounded=0;exitX=1;exitY=0.5;exitDx=0;exitDy=0;entryX=0;entryY=0.5;entryDx=0;entryDy=0;strokeColor=#2196F3;strokeWidth=2;" parent="1" source="iar3" target="aap1" edge="1">
                    <mxGeometry width="50" height="50" relative="1" as="geometry">
                        <mxPoint x="400" y="300" as="sourcePoint"/>
                        <mxPoint x="450" y="250" as="targetPoint"/>
                    </mxGeometry>
                </mxCell>
                <mxCell id="flow_3" value="" style="endArrow=classic;html=1;rounded=0;exitX=1;exitY=0.5;exitDx=0;exitDy=0;entryX=0;entryY=0.5;entryDx=0;entryDy=0;strokeColor=#4CAF50;strokeWidth=2;" parent="1" source="aap3" target="tsp1" edge="1">
                    <mxGeometry width="50" height="50" relative="1" as="geometry">
                        <mxPoint x="400" y="300" as="sourcePoint"/>
                        <mxPoint x="450" y="250" as="targetPoint"/>
                    </mxGeometry>
                </mxCell>
                <mxCell id="flow_4" value="" style="endArrow=classic;html=1;rounded=0;exitX=0.5;exitY=1;exitDx=0;exitDy=0;entryX=0.5;entryY=0;entryDx=0;entryDy=0;strokeColor=#9C27B0;strokeWidth=2;" parent="1" source="aap3" target="kgq1" edge="1">
                    <mxGeometry width="50" height="50" relative="1" as="geometry">
                        <mxPoint x="400" y="300" as="sourcePoint"/>
                        <mxPoint x="450" y="250" as="targetPoint"/>
                    </mxGeometry>
                </mxCell>
                <mxCell id="flow_6" value="" style="endArrow=classic;html=1;rounded=0;exitX=0.5;exitY=1;exitDx=0;exitDy=0;entryX=0.5;entryY=0;entryDx=0;entryDy=0;strokeColor=#FF9800;strokeWidth=2;" parent="1" source="tsp3" target="itg1" edge="1">
                    <mxGeometry width="50" height="50" relative="1" as="geometry">
                        <mxPoint x="400" y="300" as="sourcePoint"/>
                        <mxPoint x="450" y="250" as="targetPoint"/>
                    </mxGeometry>
                </mxCell>
                <mxCell id="flow_7" value="" style="endArrow=classic;html=1;rounded=0;exitX=0.75;exitY=1;exitDx=0;exitDy=0;entryX=0.5;entryY=0;entryDx=0;entryDy=0;strokeColor=#FF9800;strokeWidth=2;" parent="1" source="tsp3" target="ptg1" edge="1">
                    <mxGeometry width="50" height="50" relative="1" as="geometry">
                        <mxPoint x="400" y="300" as="sourcePoint"/>
                        <mxPoint x="450" y="250" as="targetPoint"/>
                    </mxGeometry>
                </mxCell>
                <mxCell id="flow_9" value="" style="endArrow=classic;html=1;rounded=0;exitX=0.5;exitY=1;exitDx=0;exitDy=0;entryX=0.5;entryY=0;entryDx=0;entryDy=0;strokeColor=#795548;strokeWidth=2;" parent="1" source="tqv3" target="hrf1" edge="1">
                    <mxGeometry width="50" height="50" relative="1" as="geometry">
                        <mxPoint x="400" y="300" as="sourcePoint"/>
                        <mxPoint x="450" y="250" as="targetPoint"/>
                    </mxGeometry>
                </mxCell>
                <mxCell id="flow_10" value="" style="endArrow=classic;html=1;rounded=0;exitX=1;exitY=0.5;exitDx=0;exitDy=0;entryX=0;entryY=0.5;entryDx=0;entryDy=0;strokeColor=#4CAF50;strokeWidth=2;" parent="1" source="hrf2" target="ogi1" edge="1">
                    <mxGeometry width="50" height="50" relative="1" as="geometry">
                        <mxPoint x="400" y="300" as="sourcePoint"/>
                        <mxPoint x="450" y="250" as="targetPoint"/>
                    </mxGeometry>
                </mxCell>
                <mxCell id="decision1" value="Approved?" style="rhombus;whiteSpace=wrap;html=1;fillColor=#FFF3E0;strokeColor=#F57C00;" parent="1" vertex="1">
                    <mxGeometry x="300" y="780" width="80" height="60" as="geometry"/>
                </mxCell>
                <mxCell id="flow_11" value="" style="endArrow=classic;html=1;rounded=0;exitX=0.5;exitY=1;exitDx=0;exitDy=0;entryX=0.5;entryY=0;entryDx=0;entryDy=0;" parent="1" source="hrf2" target="decision1" edge="1">
                    <mxGeometry width="50" height="50" relative="1" as="geometry">
                        <mxPoint x="400" y="300" as="sourcePoint"/>
                        <mxPoint x="450" y="250" as="targetPoint"/>
                    </mxGeometry>
                </mxCell>
                <mxCell id="flow_12" value="Yes" style="endArrow=classic;html=1;rounded=0;exitX=1;exitY=0.5;exitDx=0;exitDy=0;entryX=0.5;entryY=1;entryDx=0;entryDy=0;" parent="1" source="decision1" target="ogi1" edge="1">
                    <mxGeometry width="50" height="50" relative="1" as="geometry">
                        <mxPoint x="400" y="300" as="sourcePoint"/>
                        <mxPoint x="450" y="250" as="targetPoint"/>
                    </mxGeometry>
                </mxCell>
                <mxCell id="metrics_box" value="📊 Generation Effectiveness:&#xa;• Tests Generated per Hour: 150+&#xa;• Human Approval Rate: 89%&#xa;• Coverage Improvement: +32%&#xa;• Manual Effort Reduction: 78%&#xa;• Pattern Recognition Accuracy: 94%&#xa;• False Positive Rate: &lt;5%" style="rounded=1;whiteSpace=wrap;html=1;fillColor=#E8F5E8;strokeColor=#2E7D32;fontSize=10;align=left;" parent="1" vertex="1">
                    <mxGeometry x="950" y="70" width="200" height="120" as="geometry"/>
                </mxCell>
            </root>
        </mxGraphModel>
    </diagram>
</mxfile>